<svg xmlns="http://www.w3.org/2000/svg" width="66.417" height="66.417" viewBox="0 0 66.417 66.417"><defs><style>.a{fill:#eab14d;}.b{fill:#e49542;}.c{fill:#f4fbff;}.d{fill:#daf1f4;}.e{fill:#365e7d;}</style></defs><ellipse class="a" cx="32.235" cy="32.235" rx="32.235" ry="32.235" transform="translate(0.973 0.973)"/><path class="b" d="M244.492,7.5q-.863,0-1.715.046a32.235,32.235,0,0,1,0,64.38q.852.045,1.715.046a32.235,32.235,0,1,0,0-64.471Z" transform="translate(-211.284 -6.527)"/><ellipse class="c" cx="25.119" cy="25.119" rx="25.119" ry="25.119" transform="translate(8.089 8.089)"/><path class="d" d="M242.142,62.357c-.7,0-1.384.03-2.066.085a25.119,25.119,0,0,1,0,50.068c.681.056,1.37.085,2.066.085a25.119,25.119,0,1,0,0-50.239Z" transform="translate(-208.933 -54.268)"/><ellipse class="e" cx="2.597" cy="2.597" rx="2.597" ry="2.597" transform="translate(30.612 30.612)"/><g transform="translate(0)"><path d="M249.473,99.323a.973.973,0,0,0,.973-.973V96.922a.973.973,0,0,0-1.946,0V98.35A.973.973,0,0,0,249.473,99.323Z" transform="translate(-216.265 -83.502)"/><path d="M350.85,141.084a.973.973,0,0,0-1.376,0l-1.01,1.01a.973.973,0,1,0,1.376,1.376l1.01-1.01A.973.973,0,0,0,350.85,141.084Z" transform="translate(-303.013 -122.534)"/><path d="M390.2,248.5a.973.973,0,0,0,0,1.946h1.428a.973.973,0,0,0,0-1.946Z" transform="translate(-338.737 -216.265)"/><path d="M349.262,348.465a.973.973,0,1,0-1.376,1.376l1.01,1.01a.973.973,0,0,0,1.376-1.376Z" transform="translate(-302.51 -303.014)"/><path d="M247.683,390.2v1.428a.973.973,0,0,0,1.946,0V390.2a.973.973,0,0,0-1.946,0Z" transform="translate(-215.554 -338.738)"/><path d="M141.515,347.887l-1.01,1.01a.973.973,0,0,0,1.376,1.376l1.01-1.01a.973.973,0,0,0-1.376-1.376Z" transform="translate(-122.031 -302.511)"/><path d="M96.921,247.684a.973.973,0,1,0,0,1.946h1.428a.973.973,0,1,0,0-1.946Z" transform="translate(-83.502 -215.554)"/><path d="M143.469,141.516l-1.01-1.01a.973.973,0,0,0-1.376,1.376l1.01,1.01a.973.973,0,0,0,1.376-1.376Z" transform="translate(-122.534 -122.032)"/><path d="M196.647,162.34l6.93,3.563a.973.973,0,0,0,.89-1.73l-6.928-3.562a3.569,3.569,0,0,0-2.526-4.139v-9.917a.973.973,0,0,0-1.946,0v9.917a3.582,3.582,0,0,0-2.461,2.461h-4.829a.973.973,0,0,0,0,1.946h4.829a3.566,3.566,0,0,0,6.041,1.462Zm-2.607-.811a1.624,1.624,0,1,1,1.624-1.624A1.626,1.626,0,0,1,194.039,161.529Z" transform="translate(-160.831 -126.697)"/><path d="M106.069,79.974a.973.973,0,0,0,.9-1.044,26.093,26.093,0,1,0,0,4.038.973.973,0,1,0-1.94-.149,24.145,24.145,0,1,1,0-3.741A.971.971,0,0,0,106.069,79.974Z" transform="translate(-47.741 -47.741)"/><path d="M156.327,9.727a33.218,33.218,0,0,0-41.391-4.488.973.973,0,1,0,1.051,1.638,31.258,31.258,0,1,1,7.782,56.255.973.973,0,0,0-.564,1.862A33.212,33.212,0,0,0,156.327,9.727Z" transform="translate(-99.637 0)"/><path d="M20.594,111.322A31.269,31.269,0,0,1,13.3,58.6a.973.973,0,0,0-1.24-1.5,33.215,33.215,0,0,0,7.745,56,.973.973,0,0,0,.786-1.78Z" transform="translate(0 -49.503)"/></g></svg>